<svg width="71" height="71" viewBox="0 0 71 71" fill="none" xmlns="http://www.w3.org/2000/svg">
<g clip-path="url(#clip0_1:15)">
<path d="M35.3314 0.538414C40.8694 0.538414 46.1411 1.8105 50.8685 4.07954C51.6111 4.41383 52.3566 4.81321 53.0962 5.21554L49.8538 8.08512L44.9933 3.07962L36.6153 10.4252L31.6837 5.1475L16.2797 18.8387L26.1428 29.5922L22.291 32.9292L32.0239 43.6827L28.1722 47.0197L42.0882 62.3143L50.3272 54.8327L57.4893 62.8498C56.0693 63.9178 54.5162 64.9887 52.8299 65.9235C47.5044 68.9043 41.5024 70.4669 35.3994 70.4616C15.8744 70.4586 -1.09632e-05 54.7647 -1.09632e-05 35.4704C-0.0680526 16.3004 15.8064 0.538414 35.3314 0.538414ZM28.8437 33.3345L37.2898 25.8529L44.8572 34.2013L36.4112 41.6829L28.8437 33.3345ZM34.858 47.7593L43.236 40.2156L50.8685 48.561L42.4225 56.0427L34.858 47.7593ZM22.8383 19.1108L31.2814 11.6292L38.8459 19.9776L30.4028 27.4563L22.8383 19.1108ZM38.3045 15.1023L44.588 9.49329L50.265 15.7028L43.9815 21.3799L38.3045 15.1023ZM49.5225 40.8132L55.803 35.2042L61.4771 41.4788L55.1936 47.0937L49.5225 40.8132ZM55.0605 53.4364L61.344 47.8244L67.0151 54.0369L60.7346 59.711L55.0605 53.4364ZM57.6283 24.5837L61.8144 20.8444L65.5981 24.9861L61.4091 28.7254L57.6283 24.5837ZM52.2234 12.2297L56.4124 8.42533L60.1991 12.6321L56.0042 16.3714L52.2234 12.2297ZM62.9622 36.9407L67.1512 33.2014L71.0029 37.343L66.7489 41.0824L62.9622 36.9407ZM44.1176 27.6575L50.4011 22.0485L56.0752 28.258L49.7917 33.87L44.1176 27.6575Z" fill="white"/>
</g>
<defs>
<clipPath id="clip0_1:15">
<rect width="71" height="71" fill="white"/>
</clipPath>
</defs>
</svg>
