<svg width="69" height="69" viewBox="0 0 69 69" fill="none" xmlns="http://www.w3.org/2000/svg">
<path d="M32.9732 17.4023H19.609C18.1967 17.4019 16.8185 17.8361 15.6615 18.6459C14.5046 19.4558 13.6249 20.6021 13.1419 21.9292L0.207587 57.5043C-0.249929 58.7598 0.0631079 60.1667 1.00566 61.1127L2.01357 62.1206L24.105 40.0297C24.1016 39.9403 24.0775 39.8509 24.0775 39.7614C24.0775 38.7409 24.3801 37.7433 24.9471 36.8948C25.5141 36.0463 26.32 35.3849 27.2628 34.9944C28.2057 34.6039 29.2432 34.5017 30.2441 34.7008C31.245 34.8999 32.1644 35.3913 32.8861 36.1129C33.6077 36.8345 34.0991 37.7539 34.2982 38.7548C34.4973 39.7557 34.3952 40.7932 34.0046 41.736C33.6141 42.6788 32.9527 43.4847 32.1042 44.0517C31.2556 44.6186 30.258 44.9212 29.2374 44.9212C29.148 44.9212 29.0586 44.8972 28.9691 44.8937L6.87768 66.9846L7.88559 67.9924C8.3481 68.4561 8.9337 68.7777 9.57316 68.9191C10.2126 69.0605 10.8792 69.0159 11.4941 68.7905L47.0702 55.8531C48.3973 55.3702 49.5437 54.4905 50.3535 53.3335C51.1634 52.1766 51.5976 50.7984 51.5972 49.3862V36.0223L58.4737 29.1494L39.8497 10.526L32.9732 17.4023V17.4023ZM61.7073 24.4953L44.5074 7.29596L51.8002 0L69 17.1993L61.7073 24.4953Z" fill="white"/>
</svg>
