<svg width="68" height="68" viewBox="0 0 68 68" fill="none" xmlns="http://www.w3.org/2000/svg">
<path d="M0 12.1429C0 8.92237 1.27933 5.83379 3.55656 3.55656C5.83379 1.27933 8.92237 0 12.1429 0H24.2857V12.1429C24.2857 14.0751 25.0533 15.9283 26.4197 17.2946C27.786 18.661 29.6391 19.4286 31.5714 19.4286H68V55.8571C68 59.0776 66.7207 62.1662 64.4434 64.4434C62.1662 66.7207 59.0776 68 55.8571 68H12.1429C8.92237 68 5.83379 66.7207 3.55656 64.4434C1.27933 62.1662 0 59.0776 0 55.8571V12.1429ZM24.2857 38.8571C24.2857 37.5689 23.774 36.3335 22.8631 35.4226C21.9522 34.5117 20.7168 34 19.4286 34C18.1404 34 16.9049 34.5117 15.9941 35.4226C15.0832 36.3335 14.5714 37.5689 14.5714 38.8571C14.5714 40.1453 15.0832 41.3808 15.9941 42.2917C16.9049 43.2026 18.1404 43.7143 19.4286 43.7143C20.7168 43.7143 21.9522 43.2026 22.8631 42.2917C23.774 41.3808 24.2857 40.1453 24.2857 38.8571ZM34 43.7143C35.2882 43.7143 36.5236 43.2026 37.4345 42.2917C38.3454 41.3808 38.8571 40.1453 38.8571 38.8571C38.8571 37.5689 38.3454 36.3335 37.4345 35.4226C36.5236 34.5117 35.2882 34 34 34C32.7118 34 31.4764 34.5117 30.5655 35.4226C29.6546 36.3335 29.1429 37.5689 29.1429 38.8571C29.1429 40.1453 29.6546 41.3808 30.5655 42.2917C31.4764 43.2026 32.7118 43.7143 34 43.7143V43.7143ZM53.4286 38.8571C53.4286 37.5689 52.9168 36.3335 52.0059 35.4226C51.0951 34.5117 49.8596 34 48.5714 34C47.2832 34 46.0478 34.5117 45.1369 35.4226C44.226 36.3335 43.7143 37.5689 43.7143 38.8571C43.7143 40.1453 44.226 41.3808 45.1369 42.2917C46.0478 43.2026 47.2832 43.7143 48.5714 43.7143C49.8596 43.7143 51.0951 43.2026 52.0059 42.2917C52.9168 41.3808 53.4286 40.1453 53.4286 38.8571Z" fill="white"/>
<path d="M68 14.5714V12.1429C68 8.92237 66.7207 5.83379 64.4434 3.55656C62.1662 1.27933 59.0776 0 55.8571 0H29.1429V12.1429C29.1429 12.787 29.3987 13.4047 29.8542 13.8601C30.3096 14.3156 30.9273 14.5714 31.5714 14.5714H68Z" fill="white"/>
</svg>
